<svg xmlns:xlink="http://www.w3.org/1999/xlink" xmlns="http://www.w3.org/2000/svg" class="spacing_noMargin__F5u9R" viewBox="0 0 24 24" width="24" height="24"><defs><symbol xmlns="http://www.w3.org/2000/svg" viewBox="0 0 24 24" id="more_horiz-2eade203b098366b612487ee18fcc928"><path d="M0 0h24v24H0V0z" fill="none"></path><path d="M6 10c-1.1 0-2 .9-2 2s.9 2 2 2 2-.9 2-2-.9-2-2-2zm12 0c-1.1 0-2 .9-2 2s.9 2 2 2 2-.9 2-2-.9-2-2-2zm-6 0c-1.1 0-2 .9-2 2s.9 2 2 2 2-.9 2-2-.9-2-2-2z"></path></symbol></defs><use xlink:href="#more_horiz-2eade203b098366b612487ee18fcc928" fill="#FFFFFF"></use></svg>